<svg xmlns="http://www.w3.org/2000/svg" version="1.1" viewBox="0 0 1422000 800000"><path d="m648117 65570-19122-2010c-10708-1125-18237-10422-17112-21130l19122 2010c10708 1125 18237 10422 17112 21130ZM832240 440723l-17681 3118c-9902 1745-19053-4662-20799-14564l17681-3118c9902-1745 19053 4662 20799 14564Zm880-393890-4829 12582c-2705 7046-10366 10457-17412 7752l4830-12582c2702-7046 10363-10457 17410-7752Zm427044 4506-1067 12194c-597 6830-6432 11726-13261 11128l1067-12194c597-6830 6432-11726 13261-11128Zm122632 472652-18633 326c-10435 182-18777-7874-18959-18308l18633-326c10435-182 18777 7874 18959 18308ZM24134 447404l6931-25870c3882-14487 18315-22820 32801-18938l-6930 25870c-3883 14487-18316 22820-32802 18938Zm1060141-75134-8328 11894c-4664 6660-13562 8230-20222 3566l8328-11894c4664-6660 13562-8230 20222-3566ZM151748 655466l28015-12474c15690-6985 33504-146 40490 15542l-28016 12474c-15690 6985-33504 146-40490-15542Zm160170-95802 27400-13364c15344-7484 33280-1308 40764 14036l-27400 13364c-15344 7484-33280 1308-40764-14036ZM223611 383820l29583-9611c16566-5383 33812 3404 39195 19970l-29583 9612c-16566 5383-33812-3404-39195-19970Zm717499-16543-13799 8622c-7727 4829-17592 2551-22421-5176l13799-8622c7727-4829 17592-2551 22421 5176Z" fill="hsl(70, 69%, 50%)"/></svg>
