<svg xmlns="http://www.w3.org/2000/svg" version="1.1" viewBox="0 0 14220 8000"><defs><filter id="a" width="4000%" height="4000%" x="-1000%" y="-1000%"><feGaussianBlur in="SourceGraphic" stdDeviation="2"/></filter><filter id="b" width="4000%" height="4000%" x="-1000%" y="-1000%"><feGaussianBlur in="SourceGraphic" stdDeviation="4"/></filter><filter id="c" width="4000%" height="4000%" x="-1000%" y="-1000%"><feGaussianBlur in="SourceGraphic" stdDeviation="12"/></filter></defs><g fill="hsl(70, 69%, 50%)"><path d="M8730 2490h500c280 0 500 220 500 500h-500c-280 0-500-220-500-500Z" filter="url(#a)" opacity=".52" transform="rotate(156 5984.16 2482.61) scale(.33842)"/><path d="M2140 4540h500c280 0 500 220 500 500h-500c-280 0-500-220-500-500Z" filter="url(#b)" opacity=".36" transform="rotate(91-155.9 3954.52) scale(.23892)"/><path d="M10370 4140h500c280 0 500 220 500 500h-500c-280 0-500-220-500-500Z" filter="url(#a)" opacity=".58" transform="rotate(-176.994 7536.97 2941.3) scale(.38019)"/><path d="M10200 7300h500c280 0 500 220 500 500h-500c-280 0-500-220-500-500Z" filter="url(#a)" opacity=".58" transform="rotate(-176.994 7445.3 5123.4) scale(.38019)"/><path d="M9320 3470h500c280 0 500 220 500 500h-500c-280 0-500-220-500-500Z" filter="url(#a)" opacity=".55" transform="matrix(-.34655.08-.08-.34655 13520.75 4223.5)"/><path d="M11640 7280h500c280 0 500 220 500 500h-500c-280 0-500-220-500-500Z" filter="url(#a)" opacity=".59" transform="rotate(-173 8556.42 4991.75) scale(.38633)"/><path d="M120 7160h500c280 0 500 220 500 500H620c-280 0-500-220-500-500Z" filter="url(#a)" opacity=".5" transform="rotate(149-280.04 4974.65) scale(.32707)"/><path d="M7810 5110h500c280 0 500 220 500 500h-500c-280 0-500-220-500-500Z" filter="url(#a)" opacity=".49" transform="matrix(-.2639.1848-.1848-.2639 11493.57 5238.94)"/><path d="M13320 5890h500c280 0 500 220 500 500h-500c-280 0-500-220-500-500Z" filter="url(#a)" opacity=".48" transform="rotate(141 8340.59 5713.1) scale(.31483)"/><path d="M-40 1330h500c280 0 500 220 500 500H460c-280 0-500-220-500-500Z" filter="url(#a)" opacity=".54" transform="rotate(163.001 233.53 1088.35) scale(.34935)"/><path d="M8850 5450h500c280 0 500 220 500 500h-500c-280 0-500-220-500-500Z" filter="url(#a)" opacity=".52" transform="rotate(156 5856.34 4471.91) scale(.33842)"/><path d="M12170 4580h500c280 0 500 220 500 500h-500c-280 0-500-220-500-500Z" filter="url(#a)" opacity=".57" transform="matrix(-.37185.01299-.01299-.37185 17444 6461.5)"/><path d="M11660 6230h500c280 0 500 220 500 500h-500c-280 0-500-220-500-500Z" filter="url(#a)" opacity=".58" transform="rotate(-176 8464.74 4341.98) scale(.38069)"/><path d="M8770 7260h500c280 0 500 220 500 500h-500c-280 0-500-220-500-500Z" filter="url(#a)" opacity=".52" transform="rotate(156 5675.54 5677.56) scale(.33842)"/><path d="M5920 1080h500c280 0 500 220 500 500h-500c-280 0-500-220-500-500Z" filter="url(#b)" opacity=".45" transform="rotate(125 3899.03 2043.17) scale(.2911)"/><path d="m11023.96 610.45-175.35-122.78c-98.15-68.75-121.3-199.93-52.53-298.12l175.35 122.78c98.18 68.75 121.3 199.93 52.56 298.12Z" opacity=".66"/><path d="M13140 1900h500c280 0 500 220 500 500h-500c-280 0-500-220-500-500Z" filter="url(#a)" opacity=".48" transform="rotate(141 8706.3 3068.19) scale(.31483)"/><path d="M10060 5420h500c280 0 500 220 500 500h-500c-280 0-500-220-500-500Z" filter="url(#a)" opacity=".57" transform="matrix(-.37298.00651-.00651-.37298 14535.54 7716.03)"/><path d="M3010 7320h500c280 0 500 220 500 500h-500c-280 0-500-220-500-500Z" filter="url(#b)" opacity=".37" transform="rotate(95-436.85 5925.12) scale(.24438)"/><path d="M4280 220h500c280 0 500 220 500 500h-500c-280 0-500-220-500-500Z" filter="url(#b)" opacity=".33" transform="rotate(76 2669.78 2684.6) scale(.21578)"/><path d="M7440 7270h500c280 0 500 220 500 500h-500c-280 0-500-220-500-500Z" filter="url(#a)" opacity=".49" transform="matrix(-.2591.18825-.18825-.2591 11413 7973.77)"/><path d="M2130 5580h500c280 0 500 220 500 500h-500c-280 0-500-220-500-500Z" filter="url(#b)" opacity=".36" transform="rotate(91-551 4595.03) scale(.23892)"/><path d="M870 1120h500c280 0 500 220 500 500h-500c-280 0-500-220-500-500Z" filter="url(#b)" opacity=".42" transform="rotate(115 557.37 1189.83) scale(.27534)"/><path d="m12988.33 1151.49-191.26-65.86c-107.1-36.88-162.28-150.01-125.4-257.12l191.26 65.86c107.1 36.88 162.28 150.01 125.4 257.12Z" opacity=".62"/><path d="M12210 2530h500c280 0 500 220 500 500h-500c-280 0-500-220-500-500Z" filter="url(#a)" opacity=".57" transform="matrix(-.37185.01299-.01299-.37185 17472.26 3648.7)"/><path d="M12010 1580h500c280 0 500 220 500 500h-500c-280 0-500-220-500-500Z" filter="url(#a)" opacity=".57" transform="rotate(178 8572.22 1324) scale(.37207)"/><path d="M1050 6300h500c280 0 500 220 500 500h-500c-280 0-500-220-500-500Z" filter="url(#b)" opacity=".41" transform="rotate(110-695.97 4549.88) scale(.26798)"/><path d="M3200 4060h500c280 0 500 220 500 500h-500c-280 0-500-220-500-500Z" filter="url(#b)" opacity=".38" transform="rotate(100 963.73 3859.22) scale(.25203)"/><path d="M9750 780h500c280 0 500 220 500 500h-500c-280 0-500-220-500-500Z" filter="url(#a)" opacity=".59" transform="rotate(-171.999 7128.22 494.24) scale(.38656)"/><path d="M2410 360h500c280 0 500 220 500 500h-500c-280 0-500-220-500-500Z" filter="url(#b)" opacity=".31" transform="rotate(67 1380.97 2120.96) scale(.2019)"/><path d="M12310 5510h500c280 0 500 220 500 500h-500c-280 0-500-220-500-500Z" filter="url(#a)" opacity=".55" transform="rotate(171 8570.43 4241.08) scale(.36072)"/><path d="M7440 3890h500c280 0 500 220 500 500h-500c-280 0-500-220-500-500Z" filter="url(#a)" opacity=".49" transform="matrix(-.2591.18825-.18825-.2591 10776.7 3717.98)"/><path d="M13240 3850h500c280 0 500 220 500 500h-500c-280 0-500-220-500-500Z" filter="url(#a)" opacity=".48" transform="rotate(141 8535.48 4362.28) scale(.31483)"/><path d="M8250 1000h500c280 0 500 220 500 500h-500c-280 0-500-220-500-500Z" filter="url(#a)" opacity=".49" transform="rotate(145 5651.24 1761.32) scale(.32224)"/><path d="M6430 1980h500c280 0 500 220 500 500h-500c-280 0-500-220-500-500Z" filter="url(#a)" opacity=".5" transform="rotate(146 4355.5 2192.36) scale(.32355)"/><path d="M7040 2800h500c280 0 500 220 500 500h-500c-280 0-500-220-500-500Z" filter="url(#a)" opacity=".49" transform="rotate(145 4654.36 2821.69) scale(.32116)"/><path d="M8970 190h500c280 0 500 220 500 500h-500c-280 0-500-220-500-500Z" filter="url(#a)" opacity=".52" transform="rotate(158.001 6325.22 901) scale(.34179)"/><path d="M13210 4820h500c280 0 500 220 500 500h-500c-280 0-500-220-500-500Z" filter="url(#a)" opacity=".48" transform="rotate(141 8398.08 4996.33) scale(.31483)"/><path d="M6560 230h500c280 0 500 220 500 500h-500c-280 0-500-220-500-500Z" filter="url(#b)" opacity=".39" transform="rotate(103 4295.58 2387.72) scale(.25707)"/><path d="M6810 4650h500c280 0 500 220 500 500h-500c-280 0-500-220-500-500Z" filter="url(#a)" opacity=".49" transform="rotate(146 4326.06 3997.1) scale(.32246)"/><path d="M4730 1140h500c280 0 500 220 500 500h-500c-280 0-500-220-500-500Z" filter="url(#b)" opacity=".41" transform="rotate(109 2946.4 2249.03) scale(.26591)"/><path d="M5120 3880h500c280 0 500 220 500 500h-500c-280 0-500-220-500-500Z" filter="url(#a)" opacity=".47" transform="rotate(137 3118.85 3468.64) scale(.30973)"/><path d="M9060 1520h500c280 0 500 220 500 500h-500c-280 0-500-220-500-500Z" filter="url(#a)" opacity=".54" transform="rotate(165.001 6384.75 1604.18) scale(.35153)"/><path d="M13140 7290h500c280 0 500 220 500 500h-500c-280 0-500-220-500-500Z" filter="url(#a)" opacity=".48" transform="rotate(141 8052.41 6611.65) scale(.31483)"/><path d="M3370 6300h500c280 0 500 220 500 500h-500c-280 0-500-220-500-500Z" filter="url(#b)" opacity=".4" transform="rotate(106 618.1 5208.16) scale(.26142)"/><path d="M9470 4550h500c280 0 500 220 500 500h-500c-280 0-500-220-500-500Z" filter="url(#a)" opacity=".55" transform="matrix(-.34655.08-.08-.34655 13809.14 5665.77)"/><path d="M1080 4080h500c280 0 500 220 500 500h-500c-280 0-500-220-500-500Z" filter="url(#b)" opacity=".41" transform="rotate(110-108 3150.1) scale(.26798)"/><path d="M6790 5630h500c280 0 500 220 500 500h-500c-280 0-500-220-500-500Z" filter="url(#a)" opacity=".49" transform="rotate(146 4211.33 4643.03) scale(.32246)"/><path d="M11350 3120h500c280 0 500 220 500 500h-500c-280 0-500-220-500-500Z" filter="url(#a)" opacity=".6" transform="rotate(-171 8310.34 2055.37) scale(.38892)"/><path d="M5390 210h500c280 0 500 220 500 500h-500c-280 0-500-220-500-500Z" filter="url(#b)" opacity=".36" transform="rotate(88 3454.64 2617.25) scale(.23492)"/><path d="M5840 2890h500c280 0 500 220 500 500h-500c-280 0-500-220-500-500Z" filter="url(#a)" opacity=".49" transform="rotate(146 3868.5 2733.18) scale(.32287)"/><path d="m12196.18 650.78-137.25-182.15c-76.87-102-57.12-242.54 44.89-319.4l137.25 182.14c76.87 102 57.12 242.54-44.89 319.4Z" opacity=".7"/><path d="M8480 4230h500c280 0 500 220 500 500h-500c-280 0-500-220-500-500Z" filter="url(#a)" opacity=".51" transform="rotate(151 5590.1 3758.56) scale(.3313)"/><path d="M3270 260h500c280 0 500 220 500 500h-500c-280 0-500-220-500-500Z" filter="url(#c)" opacity=".3" transform="rotate(63 1918.8 2779.44) scale(.19553)"/><path d="M10 4610h500c280 0 500 220 500 500H510c-280 0-500-220-500-500Z" filter="url(#a)" opacity=".54" transform="rotate(163.999 122.67 3305.4) scale(.35067)"/><path d="M11110 2130h500c280 0 500 220 500 500h-500c-280 0-500-220-500-500Z" filter="url(#a)" opacity=".6" transform="rotate(-171 8119.86 1373.63) scale(.38892)"/><path d="M3260 5180h500c280 0 500 220 500 500h-500c-280 0-500-220-500-500Z" filter="url(#b)" opacity=".38" transform="rotate(100 649.82 4579.19) scale(.25203)"/><path d="M5270 1950h500c280 0 500 220 500 500h-500c-280 0-500-220-500-500Z" filter="url(#a)" opacity=".48" transform="rotate(141 3529.97 2146.4) scale(.31592)"/><path d="m13746.18 547.74-188.04-83.72c-105.3-46.88-151.2-166.46-104.32-271.76l188.04 83.72c105.3 46.88 151.2 166.46 104.32 271.76Z" opacity=".63"/><path d="M7800 1990h500c280 0 500 220 500 500h-500c-280 0-500-220-500-500Z" filter="url(#a)" opacity=".49" transform="matrix(-.2639.1848-.1848-.2639 10904.38 1297.39)"/><path d="M10240 1650h500c280 0 500 220 500 500h-500c-280 0-500-220-500-500Z" filter="url(#a)" opacity=".58" transform="rotate(-176.994 7427.05 1224.03) scale(.38019)"/><path d="M11110 5190h500c280 0 500 220 500 500h-500c-280 0-500-220-500-500Z" filter="url(#a)" opacity=".6" transform="rotate(-171 8193.44 3498.66) scale(.38892)"/><path d="M4020 3500h500c280 0 500 220 500 500h-500c-280 0-500-220-500-500Z" filter="url(#b)" opacity=".43" transform="rotate(119 2105.67 3359.8) scale(.2824)"/><path d="M7710 200h500c280 0 500 220 500 500h-500c-280 0-500-220-500-500Z" filter="url(#b)" opacity=".44" transform="rotate(122 5188.65 1914.6) scale(.2857)"/></g></svg>
