<svg xmlns="http://www.w3.org/2000/svg" version="1.1" viewBox="0 0 1422000 800000"><path d="m1211412 564222-418 11987c-235 6713-5693 11804-12406 11570l418-11988c235-6710 5693-11800 12406-11564Zm148515-81728-1740 12376c-973 6930-7184 11610-14114 10636l1740-12376c973-6930 7184-11610 14114-10636ZM696614 705593l-4329 12571c-2424 7040-9860 10667-16899 8243l4330-12571c2423-7040 9860-10667 16898-8243Zm40746-331620-5077 12565c-2843 7037-10606 10332-17642 7489l5076-12565c2843-7037 10606-10332 17642-7490Zm-429050 9140 2107 10834c1180 6067-2660 11760-8728 12940l-2106-10834c-1180-6067 2660-11761 8728-12940Zm760367 117605-2429 12497c-1360 6998-7927 11427-14925 10067l2429-12497c1360-6998 7927-11427 14925-10067Zm-20000-186000-2429 12497c-1360 6998-7927 11427-14925 10067l2429-12497c1360-6998 7927-11427 14925-10067ZM864568 717722l-6343 12450c-3552 6972-11821 9658-18793 6106l6343-12450c3552-6972 11821-9658 18793-6106ZM975160 81347l-1067 12186c-597 6824-6428 11717-13252 11120l1066-12186c597-6824 6428-11717 13252-11120Z" fill="hsl(70, 69%, 50%)"/></svg>
