<svg xmlns="http://www.w3.org/2000/svg" version="1.1" viewBox="0 0 1422000 800000"><path d="m1184116 591200 10227-25314c5728-14175 21365-20813 35540-15086l-10226 25314c-5728 14175-21365 20813-35540 15086ZM770659 357290l-11044-20768c-6184-11630-1904-25629 9726-31813l11044 20770c6184 11630 1904 25628-9726 31812Zm50818 267552-7118-23283c-3987-13038 3126-26415 16164-30400l7118 23282c3987 13038-3126 26415-16164 30400ZM378202 384014l6233 4870c3490 2727 4090 7612 1363 11102l-6233-4870c-3490-2727-4090-7612-1363-11102ZM710896 489480l-18910-8026c-10588-4494-15376-16346-10882-26935l18910 8027c10588 4494 15376 16346 10882 26935Zm-180006 4752-3605 12570c-2018 7040-9135 10984-16174 8966l3604-12570c2018-7040 9135-10984 16174-8966Zm787595-373010 5523-25984c3093-14550 16956-23553 31507-20460l-5523 25984c-3093 14550-16956 23553-31507 20460ZM214976 413694l6142 2235c3440 1250 5158 4933 3906 8372l-6142-2235c-3440-1250-5158-4937-3906-8376ZM579380 69954l-5086 12590c-2848 7050-10625 10350-17674 7501l5086-12588c2848-7050 10625-10350 17674-7502ZM241968 236868l6079 2093c3404 1176 5158 4770 3985 8176l-6080-2093c-3403-1173-5157-4768-3984-8173ZM787850 80298l-19200-2698c-10751-1510-18012-11146-16500-21898l19200 2698c10751 1511 18012 11146 16500 21898ZM582925 333643 571128 343900c-6607 5743-16310 5064-22053-1542l11797-10256c6607-5743 16310-5064 22053 1542Zm-78997 377502V723000c0 6639-5217 11855-11856 11855V723000c0-6639 5217-11855 11856-11855Z" fill="hsl(70, 69%, 50%)"/></svg>
