<svg xmlns="http://www.w3.org/2000/svg" width="50" height="50" viewBox="0 0 1000 1112"><g transform="translate(-.24 .45)"><svg xmlns="http://www.w3.org/2000/svg" xmlns:xlink="http://www.w3.org/1999/xlink" width="1000" height="1112" data-background-color="#000000" viewBox="0 0 222 247"><g transform="translate(.053 -.1)"><svg width="221.893" height="247.2" viewBox="0 0 221.893 247.2"><g><svg/></g><g><svg width="221.893" height="247.2" viewBox="0 0 221.893 247.2"><g transform="translate(0 47.215)"><svg width="221.893" height="152.77" viewBox="0 0 221.893 152.77"><g><svg width="221.893" height="152.77" viewBox="0 0 221.893 152.77"><g><svg width="221.893" height="152.77" viewBox="0 0 221.893 152.77"><g><svg width="221.893" height="152.77" viewBox="0 0 221.893 152.77"><g><svg width="221.893" height="152.77" viewBox="0 0 221.893 152.77"><g><svg width="221.893" height="152.77" viewBox="0 0 221.893 152.77"><g><svg width="221.893" height="152.77" data-palette-color="#5ffbfd" viewBox=".5 -26.3 38.2 26.3"><g class="undefined-text-0" data-fill-palette-color="primary"><path fill="#5ffbfd" d="M19.5-15.1q-1 3.8-2.12 7.55Q16.25-3.8 15 0H9.2q-.9-2.1-1.95-5-1.05-2.9-2.17-6.33-1.13-3.42-2.3-7.24Q1.6-22.4.5-26.3h7.85l.87 3.92q.48 2.13 1.01 4.38.52 2.25 1.1 4.52.57 2.28 1.17 4.38.65-2.2 1.28-4.5.62-2.3 1.2-4.53.57-2.22 1.09-4.3.53-2.07.93-3.87h5.4q.4 1.8.9 3.87.5 2.08 1.05 4.3.55 2.23 1.15 4.53.6 2.3 1.25 4.5.6-2.1 1.2-4.38.6-2.27 1.13-4.52.52-2.25 1-4.38l.87-3.92h7.75q-1.1 3.9-2.27 7.73-1.18 3.82-2.3 7.24Q33-7.9 31.93-5q-1.08 2.9-1.98 5h-5.8Q22.9-3.8 21.7-7.55q-1.2-3.75-2.2-7.55Z" data-fill-palette-color="primary"/></g></svg></g></svg></g></svg></g></svg></g></svg></g></svg></g></svg></g><path fill="#5ffbfd" stroke="transparent" d="M0 41.215V1h221.893v40.215h-13.776V14.777H13.777v26.438H0m0 164.77V246.2h221.893v-40.215h-13.776v26.438H13.777v-26.438H0" data-fill-palette-color="primary"/></svg></g></svg><path fill="none" d="M0 0h221.893v247.2H0z" visibility="hidden"/></g></svg></g></svg>